<svg width="22" height="22" viewBox="0 0 22 22" fill="none" xmlns="http://www.w3.org/2000/svg">
<path d="M14.727 8.24517C14.9955 7.97668 14.9955 7.54138 14.727 7.2729C14.4585 7.00441 14.0232 7.00441 13.7547 7.2729L10.9999 10.0277L8.24518 7.2729C7.97669 7.00441 7.54139 7.00441 7.27291 7.2729C7.00442 7.54138 7.00442 7.97668 7.27291 8.24517L10.0277 10.9999L7.2729 13.7547C7.00441 14.0232 7.00441 14.4585 7.2729 14.727C7.54138 14.9955 7.97668 14.9955 8.24517 14.727L10.9999 11.9722L13.7547 14.727C14.0232 14.9955 14.4585 14.9955 14.727 14.727C14.9955 14.4585 14.9955 14.0232 14.727 13.7547L11.9722 10.9999L14.727 8.24517Z" fill="black"/>
</svg>
