<svg width="22" height="22" viewBox="0 0 22 22" fill="none" xmlns="http://www.w3.org/2000/svg">
<path d="M11.0001 8.93758C9.86099 8.93758 8.93758 9.86099 8.93758 11.0001C8.93758 12.1392 9.86099 13.0626 11.0001 13.0626C12.1392 13.0626 13.0626 12.1392 13.0626 11.0001C13.0626 9.86099 12.1392 8.93758 11.0001 8.93758Z" fill="black"/>
<path fill-rule="evenodd" clip-rule="evenodd" d="M11.0001 5.04175C8.60046 5.04175 6.44242 6.00552 4.8874 7.19899C4.10887 7.7965 3.47006 8.46012 3.02186 9.10596C2.5822 9.73949 2.29175 10.4057 2.29175 11.0001C2.29175 11.5945 2.5822 12.2607 3.02186 12.8942C3.47006 13.54 4.10887 14.2037 4.8874 14.8012C6.44242 15.9946 8.60046 16.9584 11.0001 16.9584C13.3997 16.9584 15.5577 15.9946 17.1128 14.8012C17.8913 14.2037 18.5301 13.54 18.9783 12.8942C19.418 12.2607 19.7084 11.5945 19.7084 11.0001C19.7084 10.4057 19.418 9.73949 18.9783 9.10596C18.5301 8.46012 17.8913 7.7965 17.1128 7.19899C15.5577 6.00552 13.3997 5.04175 11.0001 5.04175ZM7.56258 11.0001C7.56258 9.1016 9.1016 7.56258 11.0001 7.56258C12.8986 7.56258 14.4376 9.1016 14.4376 11.0001C14.4376 12.8986 12.8986 14.4376 11.0001 14.4376C9.1016 14.4376 7.56258 12.8986 7.56258 11.0001Z" fill="black"/>
</svg>
