<svg width="22" height="22" viewBox="0 0 22 22" fill="none" xmlns="http://www.w3.org/2000/svg">
<path d="M10.3132 17.4168C10.3132 17.0371 10.621 16.7293 11.0007 16.7293H16.5007C16.6272 16.7293 16.7298 16.6267 16.7298 16.5002L16.7298 5.50016C16.7298 5.3736 16.6272 5.271 16.5006 5.271L11.0006 5.271C10.621 5.271 10.3132 4.96319 10.3132 4.5835C10.3132 4.2038 10.621 3.896 11.0006 3.896H16.5006C17.3866 3.896 18.1048 4.61421 18.1048 5.50016V16.5002C18.1048 17.3861 17.3866 18.1043 16.5007 18.1043H11.0007C10.621 18.1043 10.3132 17.7965 10.3132 17.4168Z" fill="black"/>
<path d="M3.20898 12.0224C3.20898 12.5287 3.61939 12.9391 4.12565 12.9391H8.57697C8.59799 13.2649 8.6243 13.5905 8.65591 13.9156L8.6831 14.1954C8.72731 14.6503 9.21036 14.9227 9.6225 14.7252C11.2981 13.9222 12.815 12.8233 14.1002 11.4814L14.1277 11.4527C14.3725 11.1971 14.3725 10.794 14.1277 10.5383L14.1002 10.5097C12.815 9.16778 11.2981 8.0689 9.62251 7.26589C9.21036 7.06837 8.72731 7.34079 8.6831 7.79568L8.65591 8.07545C8.6243 8.40061 8.59799 8.72617 8.57697 9.05198L4.12565 9.05198C3.61939 9.05198 3.20898 9.46238 3.20898 9.96864V12.0224Z" fill="black"/>
</svg>
